<svg width="540" height="540" viewBox="0 0 540 540" fill="none" xmlns="http://www.w3.org/2000/svg">
<rect width="540" height="540" rx="120" fill="#0075FF"/>
<g clip-path="url(#clip0)">
<path d="M191.367 143.468C188.371 143.166 185.811 145.524 185.874 148.426C186.311 160.577 187.122 172.728 189.682 184.456C191.68 193.706 193.927 204.164 199.296 211.721C201.794 215.288 204.978 219.278 209.348 221.333C211.47 222.301 212.594 224.477 212.157 226.714C210.409 234.694 208.723 242.674 206.975 250.654C206.413 253.435 203.479 255.127 200.67 254.341C195.426 252.83 190.806 249.686 186.623 246.543C181.691 242.795 177.695 237.535 174.386 231.913C172.451 228.709 167.768 228.648 165.771 231.792C162.337 237.293 158.216 242.372 153.472 246.059C149.414 249.263 144.794 252.346 139.487 253.918C136.678 254.765 133.743 252.951 133.182 250.17C131.433 241.525 129.748 232.941 128 224.296C127.5 221.938 128.936 219.58 131.246 218.794C139.799 215.953 145.043 206.341 147.541 198.603C153.097 181.192 153.971 162.511 154.346 144.315C154.408 141.776 152.41 139.66 149.851 139.418C144.919 138.934 140.049 138.511 135.117 138.028C132.557 137.786 130.622 135.73 130.622 133.191V108.768C130.622 105.866 133.244 103.629 136.241 103.992C140.111 104.475 144.045 104.959 147.915 105.443C150.912 105.805 153.534 103.569 153.534 100.667V93.8355C153.534 90.8732 156.219 88.6364 159.215 89.0596L182.315 92.1427C184.812 92.5055 186.623 94.5004 186.623 96.9186V105.745C186.623 108.163 188.496 110.219 190.993 110.521C195.738 111.125 200.42 111.669 205.165 112.274C207.662 112.576 209.535 114.632 209.535 117.05V139.781C209.535 142.622 206.975 144.859 204.041 144.617C199.796 144.254 195.613 143.831 191.367 143.468ZM226.641 102.36C234.383 103.387 242.062 104.415 249.803 105.443C252.3 105.745 254.111 107.8 254.111 110.219V256.881C254.111 259.541 251.863 261.717 249.116 261.717H225.954C223.207 261.717 220.96 259.541 220.96 256.881V107.196C220.96 104.234 223.644 101.997 226.641 102.36Z" fill="white"/>
<path d="M280.955 111.125C302.744 113.966 324.532 116.808 346.258 119.649C348.756 119.951 350.566 122.007 350.566 124.425V148.425C350.254 167.589 348.194 186.632 341.389 204.769C336.02 219.036 327.591 232.517 315.48 242.25C305.928 249.928 294.191 254.583 281.892 255.49C279.207 255.671 276.835 253.797 276.523 251.198C275.711 244.185 274.899 237.112 274.088 230.099C273.776 227.56 275.586 225.263 278.208 224.779C284.077 223.751 288.26 221.877 293.566 218.129C298.935 214.26 303.368 208.275 306.614 201.927C308.175 198.784 306.053 195.156 302.432 194.915C295.564 194.491 288.634 194.129 281.767 193.706C279.145 193.524 277.084 191.408 277.084 188.869V168.557C277.084 165.715 279.582 163.478 282.516 163.72C292.13 164.567 301.745 165.353 311.359 166.199C314.106 166.441 316.541 164.446 316.791 161.786C317.165 157.675 317.353 153.564 317.415 149.453C317.477 146.974 315.542 144.798 312.982 144.556C301.932 143.408 290.819 142.259 279.769 141.11C277.209 140.869 275.336 138.753 275.336 136.274V115.961C275.274 112.999 277.958 110.762 280.955 111.125ZM403.32 177.443C404.694 177.564 406.005 177.685 407.379 177.806C409.938 178.048 411.936 180.103 411.936 182.642V199.63C411.936 202.411 409.501 204.648 406.629 204.466C405.755 204.406 404.881 204.345 403.945 204.345C401.073 204.164 398.638 206.401 398.638 209.182V256.941C398.638 259.601 396.391 261.777 393.644 261.777H370.482C367.735 261.777 365.487 259.601 365.487 256.941V126.36C365.487 123.458 368.172 121.16 371.168 121.584C378.91 122.611 386.589 123.639 394.33 124.667C396.828 124.969 398.638 127.025 398.638 129.443V172.728C398.763 175.146 400.761 177.202 403.32 177.443Z" fill="white"/>
<path d="M190.368 347.741C187.746 347.982 185.748 350.159 185.873 352.758C186.31 363.217 187.122 373.736 189.682 383.711C191.742 391.691 194.489 399.792 199.296 406.744C201.356 409.767 205.102 412.91 209.098 414.482C211.345 415.389 212.531 417.747 211.97 420.044C210.346 426.996 208.661 434.009 207.037 440.961C206.413 443.561 203.729 445.253 201.044 444.588C195.8 443.319 191.055 440.719 186.747 437.878C181.815 434.674 177.882 430.2 174.386 425.303C172.388 422.522 168.143 422.522 166.145 425.303C162.586 430.321 158.653 434.916 153.596 438.241C149.289 441.082 144.481 443.681 139.175 444.891C136.49 445.495 133.868 443.923 133.181 441.324C131.62 435.157 130.06 429.052 128.436 422.885C127.812 420.467 129.186 417.988 131.62 417.142C139.424 414.482 144.918 407.167 147.665 399.913C152.847 386.189 153.971 371.257 154.408 356.627C154.47 353.726 151.911 351.368 148.914 351.67C144.669 352.093 140.423 352.456 136.24 352.879C133.306 353.181 130.746 350.945 130.746 348.043V330.572C130.746 328.153 132.619 326.098 135.117 325.796C139.861 325.191 144.544 324.647 149.289 324.043C151.786 323.74 153.659 321.685 153.659 319.267V313.161C153.659 310.743 155.469 308.687 157.966 308.385C165.646 307.357 173.325 306.329 180.941 305.241C183.938 304.818 186.622 307.115 186.622 310.017V314.007C186.622 316.909 189.245 319.146 192.241 318.783C196.112 318.299 200.045 317.816 203.916 317.332C206.913 316.969 209.535 319.206 209.535 322.108V341.393C209.535 343.872 207.599 345.987 205.04 346.229C200.108 346.834 195.238 347.257 190.368 347.741ZM225.33 303.186C233.071 302.158 240.75 301.13 248.492 300.103C251.489 299.679 254.173 301.977 254.173 304.879V446.1C254.173 448.76 251.926 450.936 249.179 450.936H226.017C223.27 450.936 221.022 448.76 221.022 446.1V307.962C220.96 305.544 222.833 303.488 225.33 303.186Z" fill="white"/>
<path d="M279.644 297.625C301.433 294.784 323.221 291.943 344.947 289.101C347.944 288.739 350.629 290.975 350.629 293.877V320.779C350.379 343.026 348.444 365.576 341.451 386.553C336.145 402.453 328.528 418.171 315.542 429.96C306.24 438.363 294.565 443.562 282.017 444.65C279.27 444.892 276.897 443.018 276.585 440.358C275.774 433.285 274.962 426.211 274.15 419.138C273.838 416.66 275.586 414.423 278.083 413.879C283.952 412.609 289.259 409.526 293.629 405.536C299.435 400.277 303.306 393.929 306.49 387.098C308.051 383.773 305.366 380.085 301.62 380.266C295.252 380.629 288.822 380.992 282.454 381.415C279.582 381.596 277.147 379.359 277.147 376.578V355.601C277.147 353.122 279.145 351.006 281.705 350.765C291.881 349.918 302.057 349.011 312.171 348.165C314.606 347.984 316.479 346.11 316.728 343.812C317.165 339.097 317.353 334.381 317.415 329.666C317.478 326.764 314.856 324.467 311.859 324.769C301.495 325.857 291.194 326.946 280.83 328.034C277.896 328.336 275.274 326.099 275.274 323.197V302.401C275.274 299.983 277.147 297.988 279.644 297.625ZM404.195 344.719C405.006 344.659 405.755 344.598 406.567 344.538C409.501 344.296 411.999 346.533 411.999 349.374V373.616C411.999 376.155 409.938 378.271 407.316 378.453C406.005 378.513 404.819 378.573 403.508 378.694C400.886 378.815 398.826 380.931 398.826 383.531V446.222C398.826 448.882 396.578 451.058 393.831 451.058H370.669C367.922 451.058 365.675 448.882 365.675 446.222V288.859C365.675 286.441 367.548 284.386 369.982 284.084C377.724 283.056 385.403 282.028 393.144 281C396.141 280.577 398.826 282.874 398.826 285.776V339.883C398.763 342.724 401.26 344.961 404.195 344.719Z" fill="white"/>
</g>
<defs>
<clipPath id="clip0">
<rect width="284" height="362" fill="white" transform="translate(128 89)"/>
</clipPath>
</defs>
</svg>
